<svg width="39" height="38" viewBox="0 0 39 38" fill="none" xmlns="http://www.w3.org/2000/svg">
<g clip-path="url(#clip0_29_252)">
<path fill-rule="evenodd" clip-rule="evenodd" d="M19.4999 0.751465C18.9471 0.751465 18.4059 0.905549 17.9401 1.19553C17.4802 1.48181 17.1128 1.88873 16.88 2.3693L12.4575 11.0688C12.4488 11.0859 12.4404 11.1032 12.4325 11.1206L12.4235 11.1315L12.4101 11.1366C12.3931 11.1384 12.3762 11.1406 12.3593 11.143L2.62164 12.5486C2.08343 12.5996 1.57019 12.7964 1.14031 13.1172C0.69551 13.4492 0.359046 13.8997 0.171678 14.4142C-0.0156894 14.9287 -0.0459231 15.4851 0.0846408 16.0161C0.214699 16.5449 0.498755 17.0258 0.902589 17.4011L8.03061 24.1021L8.04685 24.1172C8.05702 24.1264 8.06468 24.138 8.06908 24.1509C8.07348 24.1638 8.07451 24.1776 8.07206 24.1909L6.37194 33.8854C6.27862 34.4104 6.3377 34.9527 6.54331 35.4461C6.74921 35.9407 7.09341 36.3687 7.5367 36.6819C7.98002 36.9949 8.50462 37.1806 9.05085 37.2175C9.59598 37.2544 10.1408 37.1417 10.6236 36.8926L10.6265 36.8909L19.4001 32.373C19.4315 32.3597 19.4655 32.3527 19.4999 32.3527C19.5343 32.3527 19.5683 32.3597 19.5998 32.373L28.3732 36.8909C28.8562 37.1409 29.4034 37.2547 29.9488 37.2175C30.4951 37.1806 31.0196 36.9949 31.4631 36.6819C31.9063 36.3687 32.2506 35.9407 32.4565 35.4461C32.6621 34.9527 32.7214 34.4131 32.6284 33.8884L32.6278 33.8854L30.9294 24.1998L30.9277 24.1909C30.9252 24.1776 30.9263 24.1638 30.9308 24.1509C30.9349 24.1381 30.9427 24.1264 30.9528 24.1172L30.9692 24.1021L38.0973 17.401C38.5009 17.0257 38.7851 16.5448 38.9152 16.0161C39.0455 15.4851 39.0155 14.9287 38.828 14.4142C38.6408 13.8997 38.3043 13.4492 37.8594 13.1172C37.4296 12.7964 36.9164 12.5996 36.3782 12.5486L26.6404 11.143C26.6236 11.1406 26.6066 11.1384 26.5896 11.1366L26.5763 11.1315L26.5673 11.1206C26.5593 11.1032 26.551 11.0859 26.5423 11.0688L22.1198 2.36927C21.8869 1.8887 21.5195 1.4818 21.0597 1.19553C20.5939 0.905549 20.0526 0.751465 19.4999 0.751465Z" fill="#FFC93C"/>
</g>
<defs>
<clipPath id="clip0_29_252">
<rect width="39" height="38" fill="white"/>
</clipPath>
</defs>
</svg>
